<svg xmlns="http://www.w3.org/2000/svg" xmlns:xlink="http://www.w3.org/1999/xlink" width="300" zoomAndPan="magnify" viewBox="0 0 224.87999 187.499995" height="250" preserveAspectRatio="xMidYMid meet" version="1.0"><defs><g/><clipPath id="id1"><path d="M 33.5625 46.71875 L 194.90625 46.71875 L 194.90625 127.160156 L 33.5625 127.160156 Z M 33.5625 46.71875 " clip-rule="nonzero"/></clipPath><clipPath id="id2"><path d="M 194.632812 44.941406 L 205.9375 44.941406 L 205.9375 54.234375 L 194.632812 54.234375 Z M 194.632812 44.941406 " clip-rule="nonzero"/></clipPath></defs><g clip-path="url(#id1)"><path fill="#ffde59" d="M 170.0625 116.085938 C 173.59375 103.375 177.730469 91.429688 184.027344 80.3125 C 173.851562 87.300781 163.675781 94.285156 153.347656 101.378906 C 158.410156 106.875 163.808594 111.589844 170.0625 116.085938 Z M 58.578125 116.347656 C 64.824219 111.890625 70.242188 107.136719 75.289062 101.675781 C 64.792969 94.46875 54.640625 87.5 44.484375 80.53125 C 50.972656 91.671875 54.980469 103.699219 58.578125 116.347656 Z M 114.394531 58.164062 C 107.375 74.527344 95.976562 87.488281 84.953125 100.925781 C 94.761719 107.339844 104.375 113.621094 114.09375 119.972656 C 123.972656 113.511719 133.738281 107.125 143.550781 100.707031 C 138.144531 93.886719 132.773438 87.34375 127.65625 80.609375 C 122.460938 73.769531 117.917969 66.503906 114.394531 58.164062 Z M 147.9375 104.953125 C 141.800781 109.113281 135.832031 113.171875 129.851562 117.210938 C 126.054688 119.777344 122.324219 122.464844 118.410156 124.84375 C 113.386719 127.894531 114.820312 127.996094 109.671875 124.773438 C 103.964844 121.207031 98.46875 117.304688 92.890625 113.535156 C 89.65625 111.347656 86.453125 109.121094 83.222656 106.929688 C 82.425781 106.390625 81.589844 105.917969 80.59375 105.304688 C 79.535156 106.296875 78.554688 107.222656 77.566406 108.136719 C 72.132812 113.191406 66.640625 118.171875 60.078125 121.789062 C 55.058594 124.546875 53.886719 123.238281 52.9375 118.800781 C 50.589844 107.769531 46.230469 97.453125 41.496094 87.277344 C 39.15625 82.246094 36.742188 77.25 34.414062 72.214844 C 34.039062 71.40625 33.917969 70.476562 33.679688 69.601562 C 33.859375 69.46875 34.035156 69.335938 34.214844 69.203125 C 35.660156 69.921875 37.167969 70.542969 38.542969 71.375 C 44.554688 75.011719 50.574219 78.636719 56.5 82.40625 C 63.253906 86.695312 78.410156 96.621094 79.382812 97.226562 C 79.984375 96.683594 80.511719 96.269531 80.972656 95.785156 C 93.472656 82.582031 103.6875 67.804688 111.550781 51.414062 C 111.972656 50.539062 112.332031 49.617188 112.847656 48.796875 C 113.230469 48.191406 113.820312 47.714844 114.640625 46.832031 C 115.515625 48.324219 116.269531 49.414062 116.832031 50.597656 C 124.652344 67.125 134.9375 81.964844 147.453125 95.289062 C 147.976562 95.847656 148.558594 96.347656 149.230469 96.984375 C 164.128906 87.285156 178.800781 77.367188 194.300781 68.722656 C 195.488281 70.335938 194.46875 71.320312 194.039062 72.277344 C 190.375 80.34375 186.554688 88.339844 182.964844 96.441406 C 179.765625 103.667969 177.277344 111.148438 175.578125 118.886719 C 174.605469 123.308594 172.980469 123.957031 168.9375 121.738281 C 162.722656 118.332031 157.410156 113.742188 152.25 108.957031 C 150.832031 107.640625 149.414062 106.320312 147.9375 104.953125 " fill-opacity="1" fill-rule="nonzero"/></g><path fill="#ffde59" d="M 119.84375 24.949219 C 119.898438 28.085938 118.089844 30.160156 115.109375 30.773438 C 111.753906 31.464844 107.757812 29.691406 106.609375 27.007812 C 105.632812 24.730469 106.574219 21.96875 108.957031 20.367188 C 111.445312 18.695312 114.019531 19.085938 116.535156 20.296875 C 118.578125 21.28125 119.804688 22.90625 119.84375 24.949219 " fill-opacity="1" fill-rule="nonzero"/><path fill="#ffde59" d="M 24.550781 54.179688 C 24.1875 54.109375 23.296875 54.023438 22.46875 53.753906 C 20.128906 52.996094 18.953125 51.46875 19.050781 49.453125 C 19.15625 47.195312 20.820312 45.363281 23.25 45.046875 C 24.207031 44.921875 25.242188 45.03125 26.191406 45.253906 C 29.109375 45.941406 30.519531 47.679688 30.226562 50.03125 C 29.910156 52.539062 27.925781 54.132812 24.550781 54.179688 " fill-opacity="1" fill-rule="nonzero"/><g clip-path="url(#id2)"><path fill="#ffde59" d="M 200.222656 54.179688 C 199.859375 54.109375 198.96875 54.023438 198.140625 53.753906 C 195.800781 52.996094 194.625 51.46875 194.722656 49.453125 C 194.828125 47.195312 196.492188 45.363281 198.921875 45.046875 C 199.878906 44.921875 200.914062 45.03125 201.863281 45.253906 C 204.78125 45.941406 206.191406 47.679688 205.898438 50.03125 C 205.582031 52.539062 203.597656 54.132812 200.222656 54.179688 " fill-opacity="1" fill-rule="nonzero"/></g><g fill="#737373" fill-opacity="1"><g transform="translate(33.995265, 165.28519)"><g><path d="M 17.859375 0 L 17.84375 -12.078125 L 11.84375 -2.015625 L 10.75 -2.015625 L 4.765625 -12.015625 L 4.765625 0 L 2.484375 0 L 2.484375 -16.578125 L 4.421875 -16.578125 L 11.34375 -4.921875 L 18.171875 -16.578125 L 20.109375 -16.578125 L 20.140625 0 Z M 17.859375 0 "/></g></g></g><g fill="#737373" fill-opacity="1"><g transform="translate(61.350776, 165.28519)"><g><path d="M 9.96875 0.1875 C 8.300781 0.1875 6.796875 -0.175781 5.453125 -0.90625 C 4.109375 -1.644531 3.050781 -2.660156 2.28125 -3.953125 C 1.519531 -5.242188 1.140625 -6.691406 1.140625 -8.296875 C 1.140625 -9.890625 1.519531 -11.332031 2.28125 -12.625 C 3.050781 -13.914062 4.109375 -14.925781 5.453125 -15.65625 C 6.796875 -16.394531 8.300781 -16.765625 9.96875 -16.765625 C 11.625 -16.765625 13.125 -16.394531 14.46875 -15.65625 C 15.8125 -14.925781 16.863281 -13.914062 17.625 -12.625 C 18.382812 -11.34375 18.765625 -9.898438 18.765625 -8.296875 C 18.765625 -6.679688 18.382812 -5.226562 17.625 -3.9375 C 16.863281 -2.65625 15.8125 -1.644531 14.46875 -0.90625 C 13.125 -0.175781 11.625 0.1875 9.96875 0.1875 Z M 9.96875 -1.921875 C 11.1875 -1.921875 12.28125 -2.195312 13.25 -2.75 C 14.21875 -3.300781 14.984375 -4.0625 15.546875 -5.03125 C 16.109375 -6 16.390625 -7.085938 16.390625 -8.296875 C 16.390625 -9.492188 16.109375 -10.578125 15.546875 -11.546875 C 14.984375 -12.515625 14.21875 -13.273438 13.25 -13.828125 C 12.28125 -14.378906 11.1875 -14.65625 9.96875 -14.65625 C 8.757812 -14.65625 7.660156 -14.378906 6.671875 -13.828125 C 5.679688 -13.273438 4.90625 -12.515625 4.34375 -11.546875 C 3.78125 -10.578125 3.5 -9.492188 3.5 -8.296875 C 3.5 -7.085938 3.78125 -6 4.34375 -5.03125 C 4.90625 -4.0625 5.679688 -3.300781 6.671875 -2.75 C 7.660156 -2.195312 8.757812 -1.921875 9.96875 -1.921875 Z M 9.96875 -1.921875 "/></g></g></g><g fill="#737373" fill-opacity="1"><g transform="translate(85.98286, 165.28519)"><g><path d="M 16.75 -16.578125 L 16.75 0 L 14.8125 0 L 4.859375 -12.359375 L 4.859375 0 L 2.484375 0 L 2.484375 -16.578125 L 4.421875 -16.578125 L 14.375 -4.21875 L 14.375 -16.578125 Z M 16.75 -16.578125 "/></g></g></g><g fill="#737373" fill-opacity="1"><g transform="translate(109.951852, 165.28519)"><g><path d="M 13.046875 -4.140625 L 4.234375 -4.140625 L 2.421875 0 L -0.03125 0 L 7.484375 -16.578125 L 9.828125 -16.578125 L 17.359375 0 L 14.875 0 Z M 12.21875 -6.046875 L 8.640625 -14.171875 L 5.0625 -6.046875 Z M 12.21875 -6.046875 "/></g></g></g><g fill="#737373" fill-opacity="1"><g transform="translate(132.026281, 165.28519)"><g><path d="M 13.578125 0 L 10 -5.09375 C 9.550781 -5.0625 9.203125 -5.046875 8.953125 -5.046875 L 4.859375 -5.046875 L 4.859375 0 L 2.484375 0 L 2.484375 -16.578125 L 8.953125 -16.578125 C 11.097656 -16.578125 12.785156 -16.0625 14.015625 -15.03125 C 15.253906 -14.007812 15.875 -12.597656 15.875 -10.796875 C 15.875 -9.523438 15.554688 -8.4375 14.921875 -7.53125 C 14.285156 -6.632812 13.382812 -5.976562 12.21875 -5.5625 L 16.15625 0 Z M 8.890625 -7.0625 C 10.390625 -7.0625 11.53125 -7.382812 12.3125 -8.03125 C 13.101562 -8.675781 13.5 -9.597656 13.5 -10.796875 C 13.5 -12.003906 13.101562 -12.925781 12.3125 -13.5625 C 11.53125 -14.195312 10.390625 -14.515625 8.890625 -14.515625 L 4.859375 -14.515625 L 4.859375 -7.0625 Z M 8.890625 -7.0625 "/></g></g></g><g fill="#737373" fill-opacity="1"><g transform="translate(153.982308, 165.28519)"><g><path d="M 9.90625 0.1875 C 8.25 0.1875 6.75 -0.175781 5.40625 -0.90625 C 4.070312 -1.644531 3.023438 -2.65625 2.265625 -3.9375 C 1.515625 -5.226562 1.140625 -6.679688 1.140625 -8.296875 C 1.140625 -9.898438 1.515625 -11.34375 2.265625 -12.625 C 3.023438 -13.914062 4.078125 -14.925781 5.421875 -15.65625 C 6.765625 -16.394531 8.265625 -16.765625 9.921875 -16.765625 C 11.222656 -16.765625 12.410156 -16.546875 13.484375 -16.109375 C 14.554688 -15.679688 15.46875 -15.039062 16.21875 -14.1875 L 14.6875 -12.703125 C 13.4375 -14.003906 11.878906 -14.65625 10.015625 -14.65625 C 8.785156 -14.65625 7.671875 -14.378906 6.671875 -13.828125 C 5.679688 -13.273438 4.90625 -12.515625 4.34375 -11.546875 C 3.78125 -10.578125 3.5 -9.492188 3.5 -8.296875 C 3.5 -7.085938 3.78125 -6 4.34375 -5.03125 C 4.90625 -4.0625 5.679688 -3.300781 6.671875 -2.75 C 7.671875 -2.195312 8.785156 -1.921875 10.015625 -1.921875 C 11.867188 -1.921875 13.425781 -2.582031 14.6875 -3.90625 L 16.21875 -2.421875 C 15.46875 -1.566406 14.550781 -0.914062 13.46875 -0.46875 C 12.382812 -0.03125 11.195312 0.1875 9.90625 0.1875 Z M 9.90625 0.1875 "/></g></g></g><g fill="#737373" fill-opacity="1"><g transform="translate(175.843594, 165.28519)"><g><path d="M 16.75 -16.578125 L 16.75 0 L 14.375 0 L 14.375 -7.390625 L 4.859375 -7.390625 L 4.859375 0 L 2.484375 0 L 2.484375 -16.578125 L 4.859375 -16.578125 L 4.859375 -9.453125 L 14.375 -9.453125 L 14.375 -16.578125 Z M 16.75 -16.578125 "/></g></g></g><g fill="#ffde59" fill-opacity="1"><g transform="translate(31.90081, 163.190732)"><g><path d="M 17.859375 0 L 17.84375 -12.078125 L 11.84375 -2.015625 L 10.75 -2.015625 L 4.765625 -12.015625 L 4.765625 0 L 2.484375 0 L 2.484375 -16.578125 L 4.421875 -16.578125 L 11.34375 -4.921875 L 18.171875 -16.578125 L 20.109375 -16.578125 L 20.140625 0 Z M 17.859375 0 "/></g></g></g><g fill="#ffde59" fill-opacity="1"><g transform="translate(59.256321, 163.190732)"><g><path d="M 9.96875 0.1875 C 8.300781 0.1875 6.796875 -0.175781 5.453125 -0.90625 C 4.109375 -1.644531 3.050781 -2.660156 2.28125 -3.953125 C 1.519531 -5.242188 1.140625 -6.691406 1.140625 -8.296875 C 1.140625 -9.890625 1.519531 -11.332031 2.28125 -12.625 C 3.050781 -13.914062 4.109375 -14.925781 5.453125 -15.65625 C 6.796875 -16.394531 8.300781 -16.765625 9.96875 -16.765625 C 11.625 -16.765625 13.125 -16.394531 14.46875 -15.65625 C 15.8125 -14.925781 16.863281 -13.914062 17.625 -12.625 C 18.382812 -11.34375 18.765625 -9.898438 18.765625 -8.296875 C 18.765625 -6.679688 18.382812 -5.226562 17.625 -3.9375 C 16.863281 -2.65625 15.8125 -1.644531 14.46875 -0.90625 C 13.125 -0.175781 11.625 0.1875 9.96875 0.1875 Z M 9.96875 -1.921875 C 11.1875 -1.921875 12.28125 -2.195312 13.25 -2.75 C 14.21875 -3.300781 14.984375 -4.0625 15.546875 -5.03125 C 16.109375 -6 16.390625 -7.085938 16.390625 -8.296875 C 16.390625 -9.492188 16.109375 -10.578125 15.546875 -11.546875 C 14.984375 -12.515625 14.21875 -13.273438 13.25 -13.828125 C 12.28125 -14.378906 11.1875 -14.65625 9.96875 -14.65625 C 8.757812 -14.65625 7.660156 -14.378906 6.671875 -13.828125 C 5.679688 -13.273438 4.90625 -12.515625 4.34375 -11.546875 C 3.78125 -10.578125 3.5 -9.492188 3.5 -8.296875 C 3.5 -7.085938 3.78125 -6 4.34375 -5.03125 C 4.90625 -4.0625 5.679688 -3.300781 6.671875 -2.75 C 7.660156 -2.195312 8.757812 -1.921875 9.96875 -1.921875 Z M 9.96875 -1.921875 "/></g></g></g><g fill="#ffde59" fill-opacity="1"><g transform="translate(83.888405, 163.190732)"><g><path d="M 16.75 -16.578125 L 16.75 0 L 14.8125 0 L 4.859375 -12.359375 L 4.859375 0 L 2.484375 0 L 2.484375 -16.578125 L 4.421875 -16.578125 L 14.375 -4.21875 L 14.375 -16.578125 Z M 16.75 -16.578125 "/></g></g></g><g fill="#ffde59" fill-opacity="1"><g transform="translate(107.857397, 163.190732)"><g><path d="M 13.046875 -4.140625 L 4.234375 -4.140625 L 2.421875 0 L -0.03125 0 L 7.484375 -16.578125 L 9.828125 -16.578125 L 17.359375 0 L 14.875 0 Z M 12.21875 -6.046875 L 8.640625 -14.171875 L 5.0625 -6.046875 Z M 12.21875 -6.046875 "/></g></g></g><g fill="#ffde59" fill-opacity="1"><g transform="translate(129.931826, 163.190732)"><g><path d="M 13.578125 0 L 10 -5.09375 C 9.550781 -5.0625 9.203125 -5.046875 8.953125 -5.046875 L 4.859375 -5.046875 L 4.859375 0 L 2.484375 0 L 2.484375 -16.578125 L 8.953125 -16.578125 C 11.097656 -16.578125 12.785156 -16.0625 14.015625 -15.03125 C 15.253906 -14.007812 15.875 -12.597656 15.875 -10.796875 C 15.875 -9.523438 15.554688 -8.4375 14.921875 -7.53125 C 14.285156 -6.632812 13.382812 -5.976562 12.21875 -5.5625 L 16.15625 0 Z M 8.890625 -7.0625 C 10.390625 -7.0625 11.53125 -7.382812 12.3125 -8.03125 C 13.101562 -8.675781 13.5 -9.597656 13.5 -10.796875 C 13.5 -12.003906 13.101562 -12.925781 12.3125 -13.5625 C 11.53125 -14.195312 10.390625 -14.515625 8.890625 -14.515625 L 4.859375 -14.515625 L 4.859375 -7.0625 Z M 8.890625 -7.0625 "/></g></g></g><g fill="#ffde59" fill-opacity="1"><g transform="translate(151.887853, 163.190732)"><g><path d="M 9.90625 0.1875 C 8.25 0.1875 6.75 -0.175781 5.40625 -0.90625 C 4.070312 -1.644531 3.023438 -2.65625 2.265625 -3.9375 C 1.515625 -5.226562 1.140625 -6.679688 1.140625 -8.296875 C 1.140625 -9.898438 1.515625 -11.34375 2.265625 -12.625 C 3.023438 -13.914062 4.078125 -14.925781 5.421875 -15.65625 C 6.765625 -16.394531 8.265625 -16.765625 9.921875 -16.765625 C 11.222656 -16.765625 12.410156 -16.546875 13.484375 -16.109375 C 14.554688 -15.679688 15.46875 -15.039062 16.21875 -14.1875 L 14.6875 -12.703125 C 13.4375 -14.003906 11.878906 -14.65625 10.015625 -14.65625 C 8.785156 -14.65625 7.671875 -14.378906 6.671875 -13.828125 C 5.679688 -13.273438 4.90625 -12.515625 4.34375 -11.546875 C 3.78125 -10.578125 3.5 -9.492188 3.5 -8.296875 C 3.5 -7.085938 3.78125 -6 4.34375 -5.03125 C 4.90625 -4.0625 5.679688 -3.300781 6.671875 -2.75 C 7.671875 -2.195312 8.785156 -1.921875 10.015625 -1.921875 C 11.867188 -1.921875 13.425781 -2.582031 14.6875 -3.90625 L 16.21875 -2.421875 C 15.46875 -1.566406 14.550781 -0.914062 13.46875 -0.46875 C 12.382812 -0.03125 11.195312 0.1875 9.90625 0.1875 Z M 9.90625 0.1875 "/></g></g></g><g fill="#ffde59" fill-opacity="1"><g transform="translate(173.749139, 163.190732)"><g><path d="M 16.75 -16.578125 L 16.75 0 L 14.375 0 L 14.375 -7.390625 L 4.859375 -7.390625 L 4.859375 0 L 2.484375 0 L 2.484375 -16.578125 L 4.859375 -16.578125 L 4.859375 -9.453125 L 14.375 -9.453125 L 14.375 -16.578125 Z M 16.75 -16.578125 "/></g></g></g></svg>